<svg xmlns="http://www.w3.org/2000/svg" width="512" height="512" viewBox="0 0 512 512" style="color:#229acc"><path fill="currentColor" d="M256 48c-62.693 0-123.624 24.416-168.79 67.712c-22.583 21.648-39.642 46.846-50.648 74.623c-11.006 27.777-15.309 57.134-12.773 87.039c2.536 29.905 11.272 58.885 25.909 85.872c29.275 53.974 80.299 90.25 136.302 96.912c28 3.332 56.6 1.78 84.08-4.563c27.48-6.343 53.397-17.8 76.237-33.668c22.84-15.868 42.14-35.85 56.731-58.736c14.59-22.887 24.161-48.28 28.112-74.528c3.95-26.247 2.194-53.003-5.158-78.647c-7.353-25.644-20.392-49.777-38.344-70.93C341.166 97.44 299.433 72.255 256 48z"/><circle cx="256" cy="256" r="52" fill="currentColor"/><path fill="currentColor" d="M408 256c0-62.693-24.416-123.624-67.712-168.79c-21.648-22.583-46.846-39.642-74.623-50.648c-27.777-11.006-57.134-15.309-87.039-12.773c-29.905 2.536-58.885 11.272-85.872 25.909c-53.974 29.275-90.25 80.299-96.912 136.302c-3.332 28-1.78 56.6 4.563 84.08c6.343 27.48 17.8 53.397 33.668 76.237c15.868 22.84 35.85 42.14 58.736 56.731c22.887 14.59 48.28 24.161 74.528 28.112c26.247 3.95 53.003 2.194 78.647-5.158c25.644-7.353 49.777-20.392 70.93-38.344C384.56 370.834 408 314.567 408 256zm-52-52c-28.719 0-52 23.281-52 52s23.281 52 52 52s52-23.281 52-52s-23.281-52-52-52z"/></svg>