<?xml version="1.0" encoding="UTF-8" standalone="no"?>
<!DOCTYPE svg PUBLIC "-//W3C//DTD SVG 1.1//EN"
 "http://www.w3.org/Graphics/SVG/1.1/DTD/svg11.dtd">
<!-- Generated by graphviz version 12.2.1 (20241206.2353)
 -->
<!-- Title: ConfigArchitecture Pages: 1 -->
<svg width="1147pt" height="750pt"
 viewBox="0.00 0.00 1147.00 749.50" xmlns="http://www.w3.org/2000/svg" xmlns:xlink="http://www.w3.org/1999/xlink">
<g id="graph0" class="graph" transform="scale(1 1) rotate(0) translate(4 745.5)">
<title>ConfigArchitecture</title>
<polygon fill="white" stroke="none" points="-4,4 -4,-745.5 1143,-745.5 1143,4 -4,4"/>
<g id="clust1" class="cluster">
<title>cluster_current</title>
<polygon fill="lightcoral" stroke="lightcoral" points="8,-261 8,-733.5 332,-733.5 332,-261 8,-261"/>
<text text-anchor="middle" x="170" y="-716.2" font-family="Times New Roman,serif" font-size="14.00">CURRENT ARCHITECTURE (BROKEN)</text>
<text text-anchor="middle" x="170" y="-699.7" font-family="Times New Roman,serif" font-size="14.00">❌ Two modules write to opencode.json</text>
</g>
<g id="clust2" class="cluster">
<title>cluster_proposed</title>
<polygon fill="lightgreen" stroke="lightgreen" points="340,-8 340,-733.5 624,-733.5 624,-8 340,-8"/>
<text text-anchor="middle" x="482" y="-716.2" font-family="Times New Roman,serif" font-size="14.00">PROPOSED ARCHITECTURE (FIXED)</text>
<text text-anchor="middle" x="482" y="-699.7" font-family="Times New Roman,serif" font-size="14.00">✅ Single source of truth for config</text>
</g>
<g id="clust3" class="cluster">
<title>cluster_legend</title>
<polygon fill="white" stroke="white" points="632,-640.5 632,-717 1131,-717 1131,-640.5 632,-640.5"/>
<text text-anchor="middle" x="881.5" y="-699.7" font-family="Times New Roman,serif" font-size="14.00">LEGEND</text>
</g>
<!-- Toji1 -->
<g id="node1" class="node">
<title>Toji1</title>
<polygon fill="lightblue" stroke="black" points="216.75,-684.5 91.25,-684.5 91.25,-648.5 216.75,-648.5 216.75,-684.5"/>
<text text-anchor="middle" x="154" y="-661.45" font-family="Times New Roman,serif" font-size="14.00">Toji.connectClient()</text>
</g>
<!-- MCP1 -->
<g id="node2" class="node">
<title>MCP1</title>
<polygon fill="orange" stroke="black" points="169.62,-579.5 16.38,-579.5 16.38,-538.5 169.62,-538.5 169.62,-579.5"/>
<text text-anchor="middle" x="93" y="-562.2" font-family="Times New Roman,serif" font-size="14.00">McpManager</text>
<text text-anchor="middle" x="93" y="-545.7" font-family="Times New Roman,serif" font-size="14.00">.createServerForProject()</text>
</g>
<!-- Toji1&#45;&gt;MCP1 -->
<g id="edge1" class="edge">
<title>Toji1&#45;&gt;MCP1</title>
<path fill="none" stroke="black" d="M133.51,-648.35C128.09,-643.05 122.61,-636.91 118.5,-630.5 110.73,-618.38 104.92,-603.57 100.82,-590.66"/>
<polygon fill="black" stroke="black" points="104.26,-589.97 98.08,-581.37 97.55,-591.95 104.26,-589.97"/>
<text text-anchor="middle" x="159.75" y="-608.95" font-family="Times New Roman,serif" font-size="14.00">1. Create MCP</text>
</g>
<!-- ConfigMgr1 -->
<g id="node4" class="node">
<title>ConfigMgr1</title>
<polygon fill="lightgreen" stroke="black" points="324.38,-579.5 187.62,-579.5 187.62,-538.5 324.38,-538.5 324.38,-579.5"/>
<text text-anchor="middle" x="256" y="-562.2" font-family="Times New Roman,serif" font-size="14.00">ConfigManager</text>
<text text-anchor="middle" x="256" y="-545.7" font-family="Times New Roman,serif" font-size="14.00">.persistConfigToFile()</text>
</g>
<!-- Toji1&#45;&gt;ConfigMgr1 -->
<g id="edge3" class="edge">
<title>Toji1&#45;&gt;ConfigMgr1</title>
<path fill="none" stroke="black" d="M179.89,-648.15C187.04,-642.85 194.6,-636.76 201,-630.5 213.86,-617.92 226.35,-602.29 236.16,-588.94"/>
<polygon fill="black" stroke="black" points="238.93,-591.09 241.92,-580.93 233.24,-587.01 238.93,-591.09"/>
<text text-anchor="middle" x="274.13" y="-617.2" font-family="Times New Roman,serif" font-size="14.00">2. Update config</text>
<text text-anchor="middle" x="274.13" y="-600.7" font-family="Times New Roman,serif" font-size="14.00">(later)</text>
</g>
<!-- ConfigFile1 -->
<g id="node3" class="node">
<title>ConfigFile1</title>
<path fill="yellow" stroke="black" d="M310,-447.31C310,-450.14 288.93,-452.44 263,-452.44 237.07,-452.44 216,-450.14 216,-447.31 216,-447.31 216,-401.19 216,-401.19 216,-398.36 237.07,-396.06 263,-396.06 288.93,-396.06 310,-398.36 310,-401.19 310,-401.19 310,-447.31 310,-447.31"/>
<path fill="none" stroke="black" d="M310,-447.31C310,-444.48 288.93,-442.19 263,-442.19 237.07,-442.19 216,-444.48 216,-447.31"/>
<text text-anchor="middle" x="263" y="-427.45" font-family="Times New Roman,serif" font-size="14.00">opencode.json</text>
<text text-anchor="middle" x="263" y="-410.95" font-family="Times New Roman,serif" font-size="14.00">(FILE)</text>
</g>
<!-- MCP1&#45;&gt;ConfigFile1 -->
<g id="edge2" class="edge">
<title>MCP1&#45;&gt;ConfigFile1</title>
<path fill="none" stroke="red" stroke-width="3" d="M102.47,-538.11C111.05,-522.17 125.15,-500.4 143.5,-487.5 167.5,-470.63 180.88,-482.85 207,-469.5 211.95,-466.97 216.88,-463.97 221.65,-460.74"/>
<polygon fill="red" stroke="red" stroke-width="3" points="223.42,-463.78 229.43,-455.06 219.29,-458.13 223.42,-463.78"/>
<text text-anchor="middle" x="180.25" y="-507.2" font-family="Times New Roman,serif" font-size="14.00">⚠️ WRITES</text>
<text text-anchor="middle" x="180.25" y="-490.7" font-family="Times New Roman,serif" font-size="14.00">(line 374)</text>
</g>
<!-- Problem1 -->
<g id="node6" class="node">
<title>Problem1</title>
<polygon fill="pink" stroke="black" points="192.25,-469.5 15.75,-469.5 15.75,-379 198.25,-379 198.25,-463.5 192.25,-469.5"/>
<polyline fill="none" stroke="black" points="192.25,-469.5 192.25,-463.5"/>
<polyline fill="none" stroke="black" points="198.25,-463.5 192.25,-463.5"/>
<text text-anchor="middle" x="107" y="-452.2" font-family="Times New Roman,serif" font-size="14.00">PROBLEMS:</text>
<text text-anchor="middle" x="107" y="-435.7" font-family="Times New Roman,serif" font-size="14.00">• Two writers = race condition</text>
<text text-anchor="middle" x="107" y="-419.2" font-family="Times New Roman,serif" font-size="14.00">• MCP owns config logic</text>
<text text-anchor="middle" x="107" y="-402.7" font-family="Times New Roman,serif" font-size="14.00">• Tight coupling</text>
<text text-anchor="middle" x="107" y="-386.2" font-family="Times New Roman,serif" font-size="14.00">• Hard to test</text>
</g>
<!-- MCP1&#45;&gt;Problem1 -->
<g id="edge6" class="edge">
<title>MCP1&#45;&gt;Problem1</title>
<path fill="none" stroke="red" stroke-dasharray="1,5" d="M93.14,-538.19C93.42,-524.04 94.14,-504.55 96,-487.5 96.24,-485.33 96.5,-483.12 96.79,-480.9"/>
<polygon fill="red" stroke="red" points="100.23,-481.59 98.19,-471.19 93.3,-480.59 100.23,-481.59"/>
</g>
<!-- OpenCode1 -->
<g id="node5" class="node">
<title>OpenCode1</title>
<polygon fill="lightgrey" stroke="black" points="319.38,-310 206.62,-310 206.62,-269 319.38,-269 319.38,-310"/>
<text text-anchor="middle" x="263" y="-292.7" font-family="Times New Roman,serif" font-size="14.00">OpenCode Server</text>
<text text-anchor="middle" x="263" y="-276.2" font-family="Times New Roman,serif" font-size="14.00">Reads Config</text>
</g>
<!-- ConfigFile1&#45;&gt;OpenCode1 -->
<g id="edge5" class="edge">
<title>ConfigFile1&#45;&gt;OpenCode1</title>
<path fill="none" stroke="black" stroke-dasharray="5,2" d="M263,-395.74C263,-374.11 263,-343.98 263,-321.5"/>
<polygon fill="black" stroke="black" points="266.5,-321.73 263,-311.73 259.5,-321.73 266.5,-321.73"/>
<text text-anchor="middle" x="279.5" y="-339.45" font-family="Times New Roman,serif" font-size="14.00">Reads</text>
</g>
<!-- ConfigMgr1&#45;&gt;ConfigFile1 -->
<g id="edge4" class="edge">
<title>ConfigMgr1&#45;&gt;ConfigFile1</title>
<path fill="none" stroke="red" stroke-width="3" d="M234.94,-538.28C230.58,-532.97 226.6,-526.91 224.25,-520.5 219.2,-506.73 220.22,-501.6 224.25,-487.5 226.44,-479.85 229.87,-472.22 233.8,-465.07"/>
<polygon fill="red" stroke="red" stroke-width="3" points="236.7,-467.03 238.91,-456.67 230.72,-463.39 236.7,-467.03"/>
<text text-anchor="middle" x="280.12" y="-507.2" font-family="Times New Roman,serif" font-size="14.00">⚠️ ALSO WRITES</text>
<text text-anchor="middle" x="280.12" y="-490.7" font-family="Times New Roman,serif" font-size="14.00">(race condition!)</text>
</g>
<!-- Toji2 -->
<g id="node7" class="node">
<title>Toji2</title>
<polygon fill="lightblue" stroke="black" points="538.75,-684.5 413.25,-684.5 413.25,-648.5 538.75,-648.5 538.75,-684.5"/>
<text text-anchor="middle" x="476" y="-661.45" font-family="Times New Roman,serif" font-size="14.00">Toji.connectClient()</text>
</g>
<!-- MCP2 -->
<g id="node8" class="node">
<title>MCP2</title>
<polygon fill="orange" stroke="black" points="552.62,-579.5 399.38,-579.5 399.38,-538.5 552.62,-538.5 552.62,-579.5"/>
<text text-anchor="middle" x="476" y="-562.2" font-family="Times New Roman,serif" font-size="14.00">McpManager</text>
<text text-anchor="middle" x="476" y="-545.7" font-family="Times New Roman,serif" font-size="14.00">.createServerForProject()</text>
</g>
<!-- Toji2&#45;&gt;MCP2 -->
<g id="edge7" class="edge">
<title>Toji2&#45;&gt;MCP2</title>
<path fill="none" stroke="black" d="M476,-648.08C476,-632.72 476,-609.95 476,-591.42"/>
<polygon fill="black" stroke="black" points="479.5,-591.48 476,-581.48 472.5,-591.48 479.5,-591.48"/>
<text text-anchor="middle" x="517.25" y="-617.2" font-family="Times New Roman,serif" font-size="14.00">1. Create MCP</text>
<text text-anchor="middle" x="517.25" y="-600.7" font-family="Times New Roman,serif" font-size="14.00">(NO file write)</text>
</g>
<!-- MCPReturn -->
<g id="node9" class="node">
<title>MCPReturn</title>
<polygon fill="lightgrey" stroke="none" points="521.88,-444.75 430.12,-444.75 430.12,-403.75 521.88,-403.75 521.88,-444.75"/>
<text text-anchor="middle" x="476" y="-427.45" font-family="Times New Roman,serif" font-size="14.00">Returns:</text>
<text text-anchor="middle" x="476" y="-410.95" font-family="Times New Roman,serif" font-size="14.00">{port, server}</text>
</g>
<!-- MCP2&#45;&gt;MCPReturn -->
<g id="edge8" class="edge">
<title>MCP2&#45;&gt;MCPReturn</title>
<path fill="none" stroke="black" stroke-dasharray="5,2" d="M476,-538.13C476,-516.27 476,-480.9 476,-455.58"/>
<polygon fill="black" stroke="black" points="479.5,-455.91 476,-445.91 472.5,-455.91 479.5,-455.91"/>
</g>
<!-- ConfigMgr2 -->
<g id="node10" class="node">
<title>ConfigMgr2</title>
<polygon fill="lightgreen" stroke="black" points="541,-310 411,-310 411,-269 541,-269 541,-310"/>
<text text-anchor="middle" x="476" y="-292.7" font-family="Times New Roman,serif" font-size="14.00">ConfigManager</text>
<text text-anchor="middle" x="476" y="-276.2" font-family="Times New Roman,serif" font-size="14.00">.registerMcpServer()</text>
</g>
<!-- MCPReturn&#45;&gt;ConfigMgr2 -->
<g id="edge9" class="edge">
<title>MCPReturn&#45;&gt;ConfigMgr2</title>
<path fill="none" stroke="black" d="M476,-403.95C476,-382.34 476,-347.03 476,-321.54"/>
<polygon fill="black" stroke="black" points="479.5,-321.77 476,-311.77 472.5,-321.77 479.5,-321.77"/>
<text text-anchor="middle" x="509.75" y="-347.7" font-family="Times New Roman,serif" font-size="14.00">2. Register</text>
<text text-anchor="middle" x="509.75" y="-331.2" font-family="Times New Roman,serif" font-size="14.00">MCP config</text>
</g>
<!-- ConfigFile2 -->
<g id="node11" class="node">
<title>ConfigFile2</title>
<path fill="yellow" stroke="black" d="M442,-177.81C442,-180.64 420.93,-182.94 395,-182.94 369.07,-182.94 348,-180.64 348,-177.81 348,-177.81 348,-131.69 348,-131.69 348,-128.86 369.07,-126.56 395,-126.56 420.93,-126.56 442,-128.86 442,-131.69 442,-131.69 442,-177.81 442,-177.81"/>
<path fill="none" stroke="black" d="M442,-177.81C442,-174.98 420.93,-172.69 395,-172.69 369.07,-172.69 348,-174.98 348,-177.81"/>
<text text-anchor="middle" x="395" y="-157.95" font-family="Times New Roman,serif" font-size="14.00">opencode.json</text>
<text text-anchor="middle" x="395" y="-141.45" font-family="Times New Roman,serif" font-size="14.00">(FILE)</text>
</g>
<!-- ConfigMgr2&#45;&gt;ConfigFile2 -->
<g id="edge10" class="edge">
<title>ConfigMgr2&#45;&gt;ConfigFile2</title>
<path fill="none" stroke="green" stroke-width="3" d="M415.35,-268.63C408.22,-263.91 401.86,-258.12 397.25,-251 387.13,-235.38 385.47,-215.1 386.79,-197.26"/>
<polygon fill="green" stroke="green" stroke-width="3" points="390.24,-197.87 387.94,-187.52 383.29,-197.04 390.24,-197.87"/>
<text text-anchor="middle" x="460.62" y="-237.7" font-family="Times New Roman,serif" font-size="14.00">✅ SINGLE WRITER</text>
<text text-anchor="middle" x="460.62" y="-221.2" font-family="Times New Roman,serif" font-size="14.00">(no race!)</text>
</g>
<!-- Benefit -->
<g id="node13" class="node">
<title>Benefit</title>
<polygon fill="lightgreen" stroke="black" points="610.12,-200 459.88,-200 459.88,-109.5 616.12,-109.5 616.12,-194 610.12,-200"/>
<polyline fill="none" stroke="black" points="610.12,-200 610.12,-194"/>
<polyline fill="none" stroke="black" points="616.12,-194 610.12,-194"/>
<text text-anchor="middle" x="538" y="-182.7" font-family="Times New Roman,serif" font-size="14.00">BENEFITS:</text>
<text text-anchor="middle" x="538" y="-166.2" font-family="Times New Roman,serif" font-size="14.00">• Single writer = no races</text>
<text text-anchor="middle" x="538" y="-149.7" font-family="Times New Roman,serif" font-size="14.00">• Clean separation</text>
<text text-anchor="middle" x="538" y="-133.2" font-family="Times New Roman,serif" font-size="14.00">• Easy to test</text>
<text text-anchor="middle" x="538" y="-116.7" font-family="Times New Roman,serif" font-size="14.00">• Maintainable</text>
</g>
<!-- ConfigMgr2&#45;&gt;Benefit -->
<g id="edge12" class="edge">
<title>ConfigMgr2&#45;&gt;Benefit</title>
<path fill="none" stroke="green" stroke-dasharray="1,5" d="M512.27,-268.55C518.43,-263.6 524.09,-257.74 528,-251 534.84,-239.2 538.32,-225.18 539.9,-211.58"/>
<polygon fill="green" stroke="green" points="543.37,-212.06 540.68,-201.82 536.39,-211.5 543.37,-212.06"/>
</g>
<!-- OpenCode2 -->
<g id="node12" class="node">
<title>OpenCode2</title>
<polygon fill="lightgrey" stroke="black" points="460.38,-57 347.62,-57 347.62,-16 460.38,-16 460.38,-57"/>
<text text-anchor="middle" x="404" y="-39.7" font-family="Times New Roman,serif" font-size="14.00">OpenCode Server</text>
<text text-anchor="middle" x="404" y="-23.2" font-family="Times New Roman,serif" font-size="14.00">Reads Config</text>
</g>
<!-- ConfigFile2&#45;&gt;OpenCode2 -->
<g id="edge11" class="edge">
<title>ConfigFile2&#45;&gt;OpenCode2</title>
<path fill="none" stroke="black" stroke-dasharray="5,2" d="M397.13,-126.2C398.47,-108.88 400.21,-86.49 401.6,-68.54"/>
<polygon fill="black" stroke="black" points="405.07,-68.97 402.36,-58.73 398.1,-68.43 405.07,-68.97"/>
<text text-anchor="middle" x="417.59" y="-78.2" font-family="Times New Roman,serif" font-size="14.00">Reads</text>
</g>
<!-- L1 -->
<g id="node14" class="node">
<title>L1</title>
<polygon fill="lightgrey" stroke="black" points="719.88,-684.5 640.12,-684.5 640.12,-648.5 719.88,-648.5 719.88,-684.5"/>
<text text-anchor="middle" x="680" y="-661.45" font-family="Times New Roman,serif" font-size="14.00">Component</text>
</g>
<!-- L2 -->
<g id="node15" class="node">
<title>L2</title>
<path fill="lightgrey" stroke="black" d="M804.12,-681.23C804.12,-683.03 789.28,-684.5 771,-684.5 752.72,-684.5 737.88,-683.03 737.88,-681.23 737.88,-681.23 737.88,-651.77 737.88,-651.77 737.88,-649.97 752.72,-648.5 771,-648.5 789.28,-648.5 804.12,-649.97 804.12,-651.77 804.12,-651.77 804.12,-681.23 804.12,-681.23"/>
<path fill="none" stroke="black" d="M804.12,-681.23C804.12,-679.42 789.28,-677.95 771,-677.95 752.72,-677.95 737.88,-679.42 737.88,-681.23"/>
<text text-anchor="middle" x="771" y="-661.45" font-family="Times New Roman,serif" font-size="14.00">Data/File</text>
</g>
<!-- L3 -->
<g id="node16" class="node">
<title>L3</title>
<polygon fill="pink" stroke="black" points="878.25,-684.5 821.75,-684.5 821.75,-648.5 884.25,-648.5 884.25,-678.5 878.25,-684.5"/>
<polyline fill="none" stroke="black" points="878.25,-684.5 878.25,-678.5"/>
<polyline fill="none" stroke="black" points="884.25,-678.5 878.25,-678.5"/>
<text text-anchor="middle" x="853" y="-661.45" font-family="Times New Roman,serif" font-size="14.00">Problem</text>
</g>
<!-- L4 -->
<g id="node17" class="node">
<title>L4</title>
<polygon fill="red" stroke="red" points="1007.25,-684.5 902.75,-684.5 902.75,-648.5 1007.25,-648.5 1007.25,-684.5"/>
<text text-anchor="middle" x="955" y="-661.45" font-family="Times New Roman,serif" font-size="14.00">Write Operation</text>
</g>
<!-- L5 -->
<g id="node18" class="node">
<title>L5</title>
<polygon fill="green" stroke="green" points="1122.88,-684.5 1025.12,-684.5 1025.12,-648.5 1122.88,-648.5 1122.88,-684.5"/>
<text text-anchor="middle" x="1074" y="-661.45" font-family="Times New Roman,serif" font-size="14.00">Safe Operation</text>
</g>
</g>
</svg>
